<?xml version="1.0" encoding="UTF-8"?>
<svg width="26px" height="26px" viewBox="0 0 26 26" version="1.1" xmlns="http://www.w3.org/2000/svg" xmlns:xlink="http://www.w3.org/1999/xlink">
    <title>68834284-E5E7-4773-89D7-AC1190743FDB</title>
    <defs>
        <filter color-interpolation-filters="auto" id="filter-1">
            <feColorMatrix in="SourceGraphic" type="matrix" values="0 0 0 0 0.772549 0 0 0 0 0.827451 0 0 0 0 0.909804 0 0 0 1.000000 0"></feColorMatrix>
        </filter>
    </defs>
    <g id="simplified-version" stroke="none" stroke-width="1" fill="none" fill-rule="evenodd" opacity="0.600000024">
        <g id="st-d.registration--complete" transform="translate(-380.000000, -402.000000)">
            <g id="Group-2" transform="translate(320.000000, 145.000000)">
                <g id="input" transform="translate(50.000000, 245.000000)">
                    <g id="icons8-email_sign" transform="translate(10.000000, 12.000000)" filter="url(#filter-1)">
                        <g transform="translate(3.000000, 3.000000)">
                            <path d="M10.5,0 C4.71409125,0 0,4.71409125 0,10.5 C0,16.2859088 4.71409125,21 10.5,21 C11.7953347,21 13.0411972,20.7649058 14.1899415,20.333496 C14.5708261,20.1955301 14.8481359,19.8634571 14.915982,19.4640769 C14.9838282,19.0646967 14.8317346,18.6596772 14.5177772,18.4036726 C14.2038198,18.1476679 13.7764765,18.0802074 13.3989255,18.2270505 C12.4986697,18.5651408 11.5236653,18.75 10.5,18.75 C5.92990875,18.75 2.25,15.0700912 2.25,10.5 C2.25,5.92990875 5.92990875,2.25 10.5,2.25 C15.0700912,2.25 18.75,5.92990875 18.75,10.5 L18.75,11.625 C18.75,12.6736695 17.9236695,13.5 16.875,13.5 C15.8263305,13.5 15,12.6736695 15,11.625 L15,6.375 C15.0045288,5.80297943 14.5791204,5.31861362 14.0112997,5.2492758 C13.443479,5.17993798 12.9140151,5.54770223 12.780762,6.104004 C12.0214822,5.56819725 11.1132668,5.25 10.125,5.25 C7.38614025,5.25 5.25,7.670601 5.25,10.5 C5.25,13.329399 7.38614025,15.75 10.125,15.75 C11.513055,15.75 12.74421,15.1261012 13.6230465,14.1445312 C14.3801452,15.117057 15.55743,15.75 16.875,15.75 C19.1398305,15.75 21,13.8898305 21,11.625 L21,10.5 C21,4.71409125 16.2859088,0 10.5,0 Z M10.125,7.5 C11.5216402,7.5 12.75,8.779899 12.75,10.5 C12.75,12.220101 11.5216402,13.5 10.125,13.5 C8.72835975,13.5 7.5,12.220101 7.5,10.5 C7.5,8.779899 8.72835975,7.5 10.125,7.5 Z" id="Shape" fill="#000000" fill-rule="nonzero"></path>
                        </g>
                    </g>
                </g>
            </g>
        </g>
    </g>
</svg>