<?xml version="1.0" encoding="UTF-8"?>
<svg width="26px" height="26px" viewBox="0 0 26 26" version="1.1" xmlns="http://www.w3.org/2000/svg" xmlns:xlink="http://www.w3.org/1999/xlink">
    <title>C014A495-E904-470E-877F-99AD383D22A0</title>
    <defs>
        <filter color-interpolation-filters="auto" id="filter-1">
            <feColorMatrix in="SourceGraphic" type="matrix" values="0 0 0 0 1.000000 0 0 0 0 0.000000 0 0 0 0 0.400000 0 0 0 1.000000 0"></feColorMatrix>
        </filter>
        <filter color-interpolation-filters="auto" id="filter-2">
            <feColorMatrix in="SourceGraphic" type="matrix" values="0 0 0 0 0.772549 0 0 0 0 0.827451 0 0 0 0 0.909804 0 0 0 1.000000 0"></feColorMatrix>
        </filter>
    </defs>
    <g id="simplified-version" stroke="none" stroke-width="1" fill="none" fill-rule="evenodd" opacity="0.400000006">
        <g id="st-m.registration--error" transform="translate(-48.000000, -513.000000)">
            <g id="input" transform="translate(38.000000, 501.000000)">
                <g id="icon" transform="translate(10.000000, 12.000000)" filter="url(#filter-1)">
                    <g filter="url(#filter-2)" id="icons8-secure">
                        <g transform="translate(6.000000, 4.000000)">
                            <path d="M7,0 C4.43654944,0 2.33333333,2.08955886 2.33333333,4.63636364 L2.33333333,6.39763859 C0.982769667,6.88121055 0,8.15996214 0,9.65909091 L0,13.5227273 C0,15.4294326 1.58083256,17 3.5,17 L10.5,17 C12.4191674,17 14,15.4294326 14,13.5227273 L14,9.65909091 C14,8.15996214 13.0172303,6.88121055 11.6666667,6.39763859 L11.6666667,4.63636364 C11.6666667,2.08955886 9.56345056,0 7,0 Z M7,2.31818182 C8.302105,2.31818182 9.33333333,3.34271386 9.33333333,4.63636364 L9.33333333,6.18181818 L4.66666667,6.18181818 L4.66666667,4.63636364 C4.66666667,3.34271386 5.697895,2.31818182 7,2.31818182 Z M3.5,8.5 L10.5,8.5 C11.1583881,8.5 11.6666667,9.00497805 11.6666667,9.65909091 L11.6666667,13.5227273 C11.6666667,14.1768401 11.1583881,14.6818182 10.5,14.6818182 L3.5,14.6818182 C2.84161189,14.6818182 2.33333333,14.1768401 2.33333333,13.5227273 L2.33333333,9.65909091 C2.33333333,9.00497805 2.84161189,8.5 3.5,8.5 Z M7,10.0454545 C6.14089039,10.0454545 5.44444444,10.7373781 5.44444444,11.5909091 C5.44444444,12.4444401 6.14089039,13.1363636 7,13.1363636 C7.85910961,13.1363636 8.55555556,12.4444401 8.55555556,11.5909091 C8.55555556,10.7373781 7.85910961,10.0454545 7,10.0454545 Z" id="Shape" fill="#000000" fill-rule="nonzero"></path>
                        </g>
                    </g>
                </g>
            </g>
        </g>
    </g>
</svg>