<?xml version="1.0" encoding="UTF-8"?>
<svg width="72px" height="60px" viewBox="0 0 72 60" version="1.1" xmlns="http://www.w3.org/2000/svg" xmlns:xlink="http://www.w3.org/1999/xlink">
    <title>FD3ED842-89E3-413D-A70F-A957DACD938C</title>
    <g id="simplified-version" stroke="none" stroke-width="1" fill="none" fill-rule="evenodd">
        <g id="st-m.registration--error" transform="translate(-274.000000, -31.000000)" fill-rule="nonzero">
            <g id="logo" transform="translate(274.000000, 31.000000)">
                <g id="blob">
                    <path d="M69.3861941,12.6436353 C75.0978255,24.5968649 65.2322804,46.6922288 50.9161133,55.0957114 C36.5257692,63.4267503 17.6848033,58.2107955 8.19014327,49.3002062 C-1.30451675,40.4620606 -1.45287081,28.0017243 2.25598076,18.5840282 C5.96483233,9.23877594 13.6050666,2.93616395 28.0695877,0.762849473 C42.4599317,-1.41046501 63.6745627,0.617961841 69.3861941,12.6436353 Z" id="Path" fill="#F6C937" transform="translate(35.516617, 29.643714) scale(-1, -1) translate(-35.516617, -29.643714) "></path>
                    <path d="M66.7299989,14.5999998 C72.1199988,26.1499996 62.8099989,47.4999992 49.2999992,55.6199991 C35.7199994,63.6699989 17.9399997,58.629999 8.97999986,50.0199992 C0.0200000167,41.4799993 -0.119999981,29.4399995 3.37999996,20.3399997 C6.8799999,11.3099998 14.0899998,5.21999995 27.7399995,3.11999998 C41.3199993,1.02000002 61.339999,2.97999998 66.7299989,14.5999998 Z" id="Path" fill="#FF0066"></path>
                </g>
                <path d="M27.33,41.6 C29.87,41.6 32.1,40.92 34.02,39.56 C34.9,38.94 35.605,38.205 36.135,37.355 C36.665,36.505 36.93,35.58 36.93,34.58 C36.93,33.1 36.24,31.81 34.86,30.71 C34.26,30.23 33.62,29.79 32.94,29.39 C32.26,28.99 31.62,28.59 31.02,28.19 C30.42,27.79 29.925,27.375 29.535,26.945 C29.145,26.515 28.95,26.02 28.95,25.46 C28.95,24.58 29.27,23.86 29.91,23.3 C30.51,22.76 31.18,22.49 31.92,22.49 C32.52,22.49 32.97,22.75 33.27,23.27 C33.41,23.51 33.51,23.785 33.57,24.095 C33.63,24.405 33.66,24.84 33.66,25.4 C33.66,25.96 33.51,26.54 33.21,27.14 C33.77,27.34 34.45,27.44 35.25,27.44 C36.05,27.44 36.78,27.18 37.44,26.66 C38.2,26.04 38.58,25.24 38.58,24.26 C38.58,23.14 38.045,22.25 36.975,21.59 C35.905,20.93 34.265,20.6 32.055,20.6 C29.845,20.6 27.84,21.21 26.04,22.43 C25.14,23.03 24.41,23.775 23.85,24.665 C23.29,25.555 23.01,26.57 23.01,27.71 C23.01,29.47 23.69,30.9 25.05,32 C25.63,32.48 26.255,32.89 26.925,33.23 C27.595,33.57 28.22,33.915 28.8,34.265 C29.38,34.615 29.865,35.01 30.255,35.45 C30.645,35.89 30.84,36.415 30.84,37.025 C30.84,37.635 30.535,38.21 29.925,38.75 C29.315,39.29 28.64,39.56 27.9,39.56 C26.76,39.56 26.19,38.76 26.19,37.16 C26.19,36.42 26.35,35.64 26.67,34.82 C25.97,34.56 25.315,34.43 24.705,34.43 C24.095,34.43 23.59,34.5 23.19,34.64 C21.77,35.1 21.06,36.24 21.06,38.06 C21.06,39.08 21.59,39.925 22.65,40.595 C23.71,41.265 25.27,41.6 27.33,41.6 Z M42.96,41.6 C43.98,41.6 44.85,41.4 45.57,41 C46.29,40.6 46.75,40.06 46.95,39.38 C46.11,39.18 45.69,38.6 45.69,37.64 C45.69,37.22 45.82,36.39 46.08,35.15 L46.08,35.15 L47.61,27.05 L49.92,27.05 L50.19,25.7 L47.85,25.7 L48.57,22.43 L47.13,22.43 C44.81,24.19 42.45,25.43 40.05,26.15 L40.05,26.15 L39.93,27.05 L41.7,27.05 L40.11,35.15 C39.83,36.51 39.69,37.46 39.69,38 C39.69,39.12 39.98,40 40.56,40.64 C41.14,41.28 41.94,41.6 42.96,41.6 Z" id="St" fill="#FFFFFF"></path>
            </g>
        </g>
    </g>
</svg>