<?xml version="1.0" encoding="UTF-8"?>
<svg width="26px" height="26px" viewBox="0 0 26 26" version="1.1" xmlns="http://www.w3.org/2000/svg" xmlns:xlink="http://www.w3.org/1999/xlink">
    <title>A640CDF9-8775-41B3-9FCF-916F225A7DE5</title>
    <g id="simplified-version" stroke="none" stroke-width="1" fill="none" fill-rule="evenodd" opacity="0.600000024">
        <g id="st-d.registration--complete" transform="translate(-380.000000, -332.000000)" fill="#C5D3E8" fill-rule="nonzero">
            <g id="Group-2" transform="translate(320.000000, 145.000000)">
                <g id="input" transform="translate(50.000000, 175.000000)">
                    <g id="icon" transform="translate(10.000000, 12.000000)">
                        <path d="M13.5,3 C12.09375,3 10.8966113,3.57537613 10.1279295,4.45160516 C9.35924775,5.32783419 9,6.4513973 9,7.5596438 C9,8.6678903 9.35924775,9.79145341 10.1279295,10.6676824 C10.8966113,11.5439115 12.09375,12.1192876 13.5,12.1192876 C14.90625,12.1192876 16.1033888,11.5439115 16.8720705,10.6676824 C17.6407522,9.79145341 18,8.6678903 18,7.5596438 C18,6.4513973 17.6407522,5.32783419 16.8720705,4.45160516 C16.1033888,3.57537613 14.90625,3 13.5,3 Z M13.5,5.2798219 C14.3437492,5.2798219 14.834112,5.55937898 15.1904295,5.96554977 C15.5467477,6.37172056 15.75,6.95802388 15.75,7.5596438 C15.75,8.16126372 15.5467477,8.74756704 15.1904295,9.15373783 C14.834112,9.55990862 14.3437492,9.8394657 13.5,9.8394657 C12.6562508,9.8394657 12.165888,9.55990862 11.8095705,9.15373783 C11.4532523,8.74756704 11.25,8.16126372 11.25,7.5596438 C11.25,6.95802388 11.4532523,6.37172056 11.8095705,5.96554977 C12.165888,5.55937898 12.6562508,5.2798219 13.5,5.2798219 Z M8.4448245,13.6391689 C7.10869575,13.6391689 6,14.7616513 6,16.1163975 L6,16.9386768 C6,18.4494107 6.9423855,19.7623183 8.28515625,20.6300292 C9.627927,21.49774 11.4219563,22 13.5,22 C15.5780437,22 17.372073,21.49774 18.7148438,20.6300292 C20.0576145,19.7623183 21,18.4494107 21,16.9386768 L21,16.1163975 C21,14.7625595 19.8922005,13.6391689 18.5551755,13.6391689 L8.4448245,13.6391689 Z M8.4448245,15.9189908 L18.5551755,15.9189908 C18.6761513,15.9189908 18.75,15.9944301 18.75,16.1163975 L18.75,16.9386768 C18.75,17.4797827 18.4017998,18.1283175 17.504883,18.7079136 C16.6079655,19.2875097 15.2132063,19.7201781 13.5,19.7201781 C11.7867937,19.7201781 10.3920345,19.2875097 9.495117,18.7079136 C8.59820025,18.1283175 8.25,17.4797827 8.25,16.9386768 L8.25,16.1163975 C8.25,15.9938183 8.3244525,15.9189908 8.4448245,15.9189908 Z" id="Shape"></path>
                    </g>
                </g>
            </g>
        </g>
    </g>
</svg>